<svg width="48" height="48" xmlns="http://www.w3.org/2000/svg" xmlns:xlink="http://www.w3.org/1999/xlink" xml:space="preserve" overflow="hidden"><defs><clipPath id="clip0"><rect x="147" y="497" width="48" height="48"/></clipPath></defs><g clip-path="url(#clip0)" transform="translate(-147 -497)"><path d="M166 508 176 508C176.3 508 176.5 507.8 176.5 507.5 176.5 507.2 176.3 507 176 507L166 507C165.7 507 165.5 507.2 165.5 507.5 165.5 507.8 165.7 508 166 508Z" fill="#47A1DE"/><path d="M176.5 509 165.5 509 165.5 515.5 176.5 515.5 176.5 509ZM175.5 514.5 166.5 514.5 166.5 510 175.5 510 175.5 514.5Z" fill="#47A1DE"/><path d="M184.8 526.1C183 524.6 180.85 523.7 178.55 522.9L176.1 521.9C175.8 521.8 175.6 521.55 175.5 521.25 177.65 520.1 179 517.9 179.05 515.45L179.05 506.85C179.05 505 177.55 503.5 175.7 503.5L166.25 503.5C164.4 503.5 162.9 505 162.9 506.85L162.9 515.45C162.9 517.9 164.25 520.15 166.4 521.25 166.3 521.55 166.1 521.8 165.8 521.9L163.3 522.9C161.3 523.55 159.45 524.45 157.7 525.65L157.7 526.9C157.7 526.9 157.7 526.9 157.75 526.85 159.15 525.75 160.75 524.9 162.45 524.25L162.45 529.5C161.55 529.75 160.95 530.5 160.95 531.45L160.95 538.75C159.9 538.6 158.9 538.35 157.9 538.05 158.55 537.45 158.9 536.6 158.95 535.7 158.95 534.5 158.25 533.45 157.2 532.9L157.1 532.85C156.95 532.8 156.85 532.75 156.7 532.7L156.7 526.95C156.7 526.65 156.6 526.3 156.35 526.1L155.2 524.95 155.55 524.6 155.45 523.5 153.6 522.95 153.5 522.7C152.7 520.9 151.15 519.8 148.9 519.5L148.15 519.4 148.35 520.1C148.85 522.1 150.45 523.6 152.45 523.95L152.55 523.95 153.1 525.8 154.25 525.95 154.6 525.6 155.75 526.75C155.8 526.8 155.8 526.85 155.8 526.9L155.8 532.5C155.75 532.5 155.7 532.5 155.65 532.5 153.7 532.5 152.55 532.7 152.55 535.75 152.55 538.8 153.7 539 155.55 539L155.55 539C155.6 539 155.65 539 155.65 539 156.1 539 156.5 538.9 156.9 538.75 159.85 539.9 165.5 540.5 171.15 540.5 177.7 540.5 184.2 539.7 186.3 538.15L186.5 538 186.5 529.5C186.45 528.15 185.85 526.95 184.8 526.1ZM152.3 522.95C151.1 522.65 150.1 521.8 149.55 520.65 150.75 520.9 151.8 521.7 152.4 522.8L152.3 522.95ZM153.55 524 153.55 524 154.55 524.25 154.55 524.25 153.85 524.95 153.55 524ZM155.55 538C153.95 538 153.5 538 153.5 535.75 153.5 533.5 153.95 533.5 155.6 533.5 156 533.5 156.35 533.6 156.7 533.75L156.8 533.8C157.5 534.15 158 534.9 158 535.7 157.95 537.05 156.85 538.05 155.55 538ZM178.5 523.95 178.5 529.5 176.5 529.5 176.5 523.1 178.5 523.95ZM166.5 524.35C167.95 524.8 169.45 525.05 171 525 172.55 525 174.05 524.8 175.5 524.35L175.5 529.5 166.5 529.5 166.5 524.35ZM163.95 515.45 163.95 506.85C163.95 505.55 165 504.5 166.3 504.5L175.75 504.5C177.05 504.5 178.1 505.55 178.1 506.85L178.1 515.45C178.05 518.5 175.55 521 172.5 521L169.5 521C166.45 521 163.95 518.5 163.95 515.45L163.95 515.45ZM169.5 522 172.5 522C173.2 522 173.95 521.9 174.6 521.65 174.75 522.1 175.05 522.45 175.5 522.7L175.5 523.3C174.05 523.8 172.55 524.05 171 524.05 169.45 524.05 167.95 523.85 166.5 523.3L166.5 522.7C166.9 522.45 167.2 522.1 167.35 521.65 168.05 521.9 168.8 522 169.5 522ZM165.5 523.1 165.5 529.5 163.5 529.5 163.5 523.95 165.5 523.1ZM162 538.95 162 531.5C162 530.95 162.45 530.5 163 530.5L179 530.5C179.55 530.5 180 530.95 180 531.5L180 539C174 539.7 168 539.7 162 538.95ZM185.5 537.5C184.6 538.05 183 538.5 181 538.85L181 531.5C181 530.6 180.4 529.8 179.5 529.55L179.5 524.3C181.2 524.9 182.75 525.8 184.2 526.9 185 527.5 185.5 528.5 185.5 529.5L185.5 537.5Z" fill="#47A1DE"/></g></svg>