<svg width="48" height="48" xmlns="http://www.w3.org/2000/svg" xmlns:xlink="http://www.w3.org/1999/xlink" xml:space="preserve" overflow="hidden"><defs><clipPath id="clip0"><rect x="1090" y="284" width="48" height="48"/></clipPath></defs><g clip-path="url(#clip0)" transform="translate(-1090 -284)"><path d="M1107.51 328.037C1106 328.027 1104.75 326.871 1104.61 325.369 1104.59 325.094 1104.8 324.853 1105.07 324.83 1105.09 324.829 1105.1 324.828 1105.11 324.828L1109.89 324.828C1110.17 324.828 1110.39 325.051 1110.4 325.327 1110.4 325.341 1110.39 325.355 1110.39 325.368 1110.27 326.871 1109.01 328.028 1107.51 328.037ZM1105.74 325.828C1106.12 326.803 1107.21 327.287 1108.19 326.909 1108.68 326.716 1109.08 326.324 1109.27 325.828Z" fill="#47A1DE"/><path d="M1113.07 321.97 1102.07 321.97C1101.79 321.97 1101.57 321.746 1101.57 321.47 1101.57 321.194 1101.79 320.97 1102.07 320.97L1113.07 320.97C1113.35 320.97 1113.57 321.194 1113.57 321.47 1113.57 321.746 1113.35 321.97 1113.07 321.97Z" fill="#47A1DE"/><path d="M1113.07 317.97 1102.07 317.97C1101.79 317.97 1101.57 317.746 1101.57 317.47 1101.57 317.194 1101.79 316.97 1102.07 316.97L1113.07 316.97C1113.35 316.97 1113.57 317.194 1113.57 317.47 1113.57 317.746 1113.35 317.97 1113.07 317.97Z" fill="#47A1DE"/><path d="M1136 302.05 1125.57 302.05 1117.6 306.035 1117.6 306.035C1117.21 306.746 1116.74 307.41 1116.2 308.015 1115.09 309.228 1113.92 311.465 1113.32 312.691 1113.25 312.833 1113.1 312.923 1112.94 312.923L1102.04 312.923C1101.88 312.917 1101.74 312.83 1101.67 312.694 1101.06 311.462 1099.88 309.217 1098.78 308.021 1097.93 307.062 1097.26 305.957 1096.79 304.76 1096.31 303.49 1096.03 302.147 1095.99 300.786L1095.99 300.383C1095.99 294.031 1101.14 288.88 1107.49 288.878 1113.84 288.876 1118.99 294.022 1118.99 300.374L1118.99 300.771C1118.99 300.948 1118.98 301.125 1118.96 301.302 1118.95 301.578 1119.16 301.813 1119.44 301.827 1119.71 301.841 1119.94 301.642 1119.96 301.376 1119.98 301.185 1119.99 300.993 1119.99 300.786L1119.99 300.364C1119.99 293.46 1114.39 287.866 1107.49 287.869 1100.58 287.871 1094.99 293.47 1094.99 300.374L1094.99 300.8C1095.04 302.278 1095.33 303.738 1095.86 305.118 1096.37 306.429 1097.11 307.639 1098.04 308.689 1099.1 309.839 1100.3 312.18 1100.77 313.134 1101.01 313.614 1101.5 313.918 1102.04 313.921L1112.94 313.921C1113.48 313.919 1113.97 313.613 1114.21 313.132 1114.68 312.182 1115.88 309.851 1116.95 308.682 1117.51 308.045 1118 307.348 1118.42 306.604L1118.42 306.604 1118.49 306.483 1125.57 310.05 1136 310.05 1136 309.05 1128.28 309.05C1129.94 307.603 1130.11 305.087 1128.66 303.43 1128.54 303.295 1128.42 303.168 1128.28 303.05L1136 303.05ZM1128.64 306.05C1128.64 307.648 1127.39 308.964 1125.79 309.043L1121.31 306.785 1121.31 305.3 1125.79 303.06C1127.38 303.137 1128.64 304.452 1128.64 306.05Z" fill="#47A1DE"/></g></svg>