<svg width="48" height="48" xmlns="http://www.w3.org/2000/svg" xmlns:xlink="http://www.w3.org/1999/xlink" xml:space="preserve" overflow="hidden"><defs><clipPath id="clip0"><rect x="618" y="90" width="48" height="48"/></clipPath></defs><g clip-path="url(#clip0)" transform="translate(-618 -90)"><path d="M663.65 107 661.75 105.1C661.3 104.65 660.65 104.65 660.2 105.05 659.8 105.45 659.15 105.5 658.7 105.1 658.25 104.65 658.25 103.9 658.7 103.45 659.1 103 659.05 102.35 658.65 101.95L654 97.35C651.2 94.55 645.6 93.6 640.1 95.1 640.05 95.1 640 95.15 639.95 95.15 639.75 95.3 639.6 95.5 639.65 95.75 639.7 96 639.85 96.2 640.1 96.3 640.8 96.55 642.1 96.95 642.1 96.95 645.15 98 648.2 102 648.6 102.8L634.15 117.15 633.75 116.75C633.3 116.3 632.6 116.3 632.2 116.75L620.6 128.4 620.65 128.45C619.7 129.75 619.85 131.5 621 132.65 622.15 133.75 623.9 133.95 625.2 133L625.25 133.05 636.9 121.4C637.35 120.95 637.35 120.25 636.9 119.85L636.5 119.45 650.85 105.1 653.15 107.4C653.6 107.85 654.25 107.85 654.7 107.45 655.1 107.05 655.75 107 656.2 107.4 656.65 107.85 656.65 108.6 656.2 109.05 655.8 109.5 655.85 110.15 656.25 110.55L658.2 112.45C658.65 112.9 659.35 112.9 659.8 112.45L663.65 108.6C663.85 108.4 664 108.1 664 107.8 664 107.5 663.9 107.2 663.65 107Z" fill="#47A1DE"/></g></svg>