<svg width="48" height="48" xmlns="http://www.w3.org/2000/svg" xmlns:xlink="http://www.w3.org/1999/xlink" xml:space="preserve" overflow="hidden"><defs><clipPath id="clip0"><rect x="618" y="492" width="48" height="48"/></clipPath></defs><g clip-path="url(#clip0)" transform="translate(-618 -492)"><path d="M659.05 503.45 655.5 502.5 654.55 498.95 659.05 494.45C656.35 493.45 653.35 494 651.2 495.95 649.1 497.9 648.2 500.85 649 503.6L629.6 523C626.85 522.25 623.9 523.15 622 525.25 620.1 527.35 619.5 530.35 620.5 533.05L625 528.55 628.5 529.5 629.45 533.05 624.95 537.55C627.65 538.55 630.65 538 632.8 536.05 634.9 534.1 635.8 531.15 635 528.4L654.4 509C657.15 509.75 660.1 508.85 662 506.75 663.9 504.65 664.5 501.65 663.5 498.95L659.05 503.45Z" fill="#47A1DE"/></g></svg>