<svg width="48" height="48" xmlns="http://www.w3.org/2000/svg" xmlns:xlink="http://www.w3.org/1999/xlink" xml:space="preserve" overflow="hidden"><defs><clipPath id="clip0"><rect x="618" y="281" width="48" height="48"/></clipPath></defs><g clip-path="url(#clip0)" transform="translate(-618 -281)"><path d="M621.5 311.5 658.88 311.5 654.44 307.06C653.875 306.454 653.909 305.505 654.515 304.94 655.091 304.403 655.984 304.403 656.56 304.94L663.56 311.94C664.145 312.526 664.145 313.474 663.56 314.06L656.56 321.06C655.974 321.645 655.026 321.645 654.44 321.06 653.855 320.474 653.855 319.526 654.44 318.94L658.88 314.5 621.5 314.5C620.672 314.5 620 313.828 620 313 620 312.172 620.672 311.5 621.5 311.5Z" fill="#47A1DE"/><path d="M662.5 295.5 625.12 295.5 629.56 291.06C630.166 290.495 630.2 289.546 629.635 288.94 629.07 288.334 628.121 288.3 627.515 288.865 627.489 288.889 627.464 288.914 627.44 288.94L620.44 295.94C619.855 296.526 619.855 297.474 620.44 298.06L627.44 305.06C628.026 305.645 628.974 305.645 629.56 305.06 630.145 304.474 630.145 303.526 629.56 302.94L625.12 298.5 662.5 298.5C663.328 298.5 664 297.828 664 297 664 296.172 663.328 295.5 662.5 295.5Z" fill="#47A1DE"/></g></svg>