<svg width="53" height="53" xmlns="http://www.w3.org/2000/svg" xmlns:xlink="http://www.w3.org/1999/xlink" xml:space="preserve" overflow="hidden"><defs><clipPath id="clip0"><rect x="1085" y="492" width="53" height="53"/></clipPath></defs><g clip-path="url(#clip0)" transform="translate(-1085 -492)"><path d="M1102.22 520.337C1099.94 521.104 1097.81 522.242 1095.92 523.705 1094.63 524.712 1093.86 526.249 1093.83 527.885L1093.83 537.586 1094.32 537.913C1095.47 538.678 1097.45 539.279 1099.91 539.719L1099.91 536.167 1110.4 536.167 1110.4 540.609C1110.81 540.616 1111.23 540.619 1111.65 540.619 1111.97 540.619 1112.29 540.615 1112.6 540.612L1112.6 536.167 1123.09 536.167 1123.09 539.759C1125.64 539.308 1127.65 538.681 1128.72 537.878L1129.17 537.547 1129.17 527.862C1129.14 526.241 1128.38 524.72 1127.11 523.718 1125.21 522.254 1123.08 521.114 1120.81 520.346L1117.37 518.965C1117.16 518.882 1117.02 518.68 1117.02 518.456L1117.02 517.104C1119.11 515.432 1120.33 512.898 1120.33 510.219L1120.33 506.354 1120.89 506.354C1121.5 506.354 1121.99 505.86 1121.99 505.25 1121.99 504.64 1121.5 504.146 1120.89 504.146L1120.33 504.146C1120.14 501.097 1118.39 498.364 1115.7 496.919L1114.81 500.414C1114.75 500.666 1114.52 500.841 1114.26 500.833L1114.13 500.833C1113.83 500.771 1113.64 500.478 1113.7 500.18 1113.7 500.18 1113.7 500.18 1113.7 500.18 1113.7 500.169 1113.71 500.159 1113.71 500.149L1114.76 496.014C1114.57 495.28 1113.92 494.764 1113.16 494.76L1109.85 494.76C1109.09 494.763 1108.43 495.279 1108.25 496.014L1109.29 500.149C1109.38 500.442 1109.2 500.745 1108.91 500.826L1108.88 500.833 1108.74 500.833C1108.48 500.841 1108.25 500.666 1108.19 500.414L1107.34 496.919C1104.64 498.364 1102.89 501.097 1102.7 504.146L1102.12 504.146C1101.51 504.146 1101.01 504.64 1101.01 505.25 1101.01 505.86 1101.51 506.354 1102.12 506.354L1102.67 506.354 1102.67 510.219C1102.67 512.896 1103.89 515.428 1105.98 517.1L1105.98 518.456C1105.98 518.679 1105.85 518.88 1105.64 518.965ZM1104.88 510.219 1104.88 506.354 1118.12 506.354 1118.12 510.219C1118.12 513.878 1115.16 516.844 1111.5 516.844 1107.84 516.844 1104.88 513.878 1104.88 510.219ZM1110.4 533.958 1100.08 533.958 1101.81 522.904 1106.47 521.01C1106.51 520.996 1106.53 520.977 1106.57 520.962L1110.4 530.094ZM1111.5 521.26C1110.02 521.275 1108.54 521.063 1107.12 520.63 1107.79 520.11 1108.19 519.307 1108.19 518.456L1108.19 518.401C1110.31 519.268 1112.69 519.268 1114.82 518.401L1114.82 518.456C1114.81 519.311 1115.21 520.118 1115.89 520.637 1114.47 521.066 1112.99 521.276 1111.5 521.26ZM1112.6 533.958 1112.6 530.094 1116.43 520.965C1116.47 520.98 1116.5 520.999 1116.53 521.013L1121.22 522.89 1122.93 533.958Z" fill="#47A1DE"/></g></svg>